<svg id="logosandtypes_com" data-name="logosandtypes com" xmlns="http://www.w3.org/2000/svg" viewBox="0 0 150 150"><defs><style>.cls-1{fill:none;}.cls-2{fill:#0083c6;}.cls-2,.cls-3,.cls-4{fill-rule:evenodd;}.cls-3{fill:#2d9c5c;}.cls-4{fill:#e92a35;}</style></defs><path class="cls-1" d="M0,0H150V150H0Z" transform="translate(0 0)"/><polygon class="cls-2" points="38.83 70.96 43.04 75.33 36.95 88.14 36.95 88.14 46.48 78.61 50.07 82.21 32.89 99.23 28.99 95.17 34.92 82.05 25.4 91.73 21.8 88.14 38.83 70.96"/><polygon class="cls-2" points="81.31 113.44 85.52 117.66 79.28 130.46 79.28 130.46 88.8 120.94 92.39 124.53 75.37 141.55 71.31 137.49 77.4 124.37 67.72 134.05 64.13 130.46 81.31 113.44"/><path class="cls-2" d="M36.64,103l17-17.18,3.6,3.59c4.06,4.06,6.4,7.18,2.65,10.93-2.34,2.34-4.22,3.13-6.87,1.25l-.16.16c2,2,1.56,3.59-.93,6.09l-2.66,2.65a5.81,5.81,0,0,0-1.87,3.13l-3.6-3.6a4.91,4.91,0,0,1,1.88-3l3-3c1.24-1.25.31-3.59-.47-4.22l-.63-.78-7.34,7.34L36.64,103Zm13.43-6.41c1.88,1.88,3.59,2.35,5.31.63,1.72-1.56,1.25-3.28-.62-5.31l-4.69,4.68Z" transform="translate(0 0)"/><path class="cls-2" d="M65.53,122c-4.06,4.06-7.81,2.5-10.31,0-2.34-2.34-3.9-6.09.16-10.31l7.34-7.18c4.06-4.06,7.81-2.66,10.31-.16,2.34,2.5,3.9,6.25-.16,10.31L65.53,122ZM58,116.25a2,2,0,0,0,.15,3,2,2,0,0,0,2.81.15l9.22-9.21a2.11,2.11,0,0,0-3-3L58,116.25Z" transform="translate(0 0)"/><polygon class="cls-2" points="141.74 75.18 124.41 57.84 124.41 57.84 87.01 95.08 92.86 96.42 124.41 64.87 134.72 75.18 88.8 120.94 92.39 124.53 141.74 75.18"/><polygon class="cls-3" points="92.86 96.42 82.24 85.64 117.22 50.66 117.22 50.66 99.89 33.17 62.99 70.07 68.34 71.9 99.89 40.35 110.04 50.66 75.06 85.64 75.06 85.64 89.27 100.01 92.86 96.42"/><polygon class="cls-4" points="68.34 71.9 57.57 61.12 92.71 26.14 75.37 8.65 75.37 8.65 25.86 58.16 27.72 63.33 75.37 15.83 85.52 26.14 50.54 61.12 64.75 75.33 68.34 71.9"/><polygon class="cls-2" points="8.84 75.18 25.86 58.16 35.39 67.53 32.11 70.81 26.33 64.87 23.21 67.99 28.83 73.77 25.71 77.05 19.93 71.27 15.71 75.49 21.65 81.42 18.37 84.55 8.84 75.18"/></svg>